<?xml version="1.0" encoding="UTF-8" standalone="no"?>
<svg
   xmlns:dc="http://purl.org/dc/elements/1.1/"
   xmlns:cc="http://creativecommons.org/ns#"
   xmlns:rdf="http://www.w3.org/1999/02/22-rdf-syntax-ns#"
   xmlns:svg="http://www.w3.org/2000/svg"
   xmlns="http://www.w3.org/2000/svg"
   xmlns:sodipodi="http://sodipodi.sourceforge.net/DTD/sodipodi-0.dtd"
   xmlns:inkscape="http://www.inkscape.org/namespaces/inkscape"
   version="1.1"
   id="svg10"
   width="1280"
   height="1280"
   viewBox="0 0 1280 1280"
   sodipodi:docname="msmconsulting_icon.svg"
   inkscape:version="1.0.2-2 (e86c870879, 2021-01-15)">
  <metadata
     id="metadata16">
    <rdf:RDF>
      <cc:Work
         rdf:about="">
        <dc:format>image/svg+xml</dc:format>
        <dc:type
           rdf:resource="http://purl.org/dc/dcmitype/StillImage" />
        <dc:title />
      </cc:Work>
    </rdf:RDF>
  </metadata>
  <defs
     id="defs14" />
  <sodipodi:namedview
     pagecolor="#ffffff"
     bordercolor="#666666"
     borderopacity="1"
     objecttolerance="10"
     gridtolerance="10"
     guidetolerance="10"
     inkscape:pageopacity="0"
     inkscape:pageshadow="2"
     inkscape:window-width="1920"
     inkscape:window-height="986"
     id="namedview12"
     showgrid="false"
     inkscape:zoom="0.625"
     inkscape:cx="544.34118"
     inkscape:cy="639.94205"
     inkscape:window-x="-11"
     inkscape:window-y="-11"
     inkscape:window-maximized="1"
     inkscape:current-layer="g18"
     inkscape:document-rotation="0" />
  <g
     inkscape:groupmode="layer"
     inkscape:label="Image"
     id="g18">
    <g
       id="g855">
      <path
         style="fill:#f6931d;stroke-width:0.32"
         d="m 732.48,1103.4321 c -15.66394,-0.7437 -40.71296,-3.859 -39.33334,-4.8919 0.0733,-0.055 3.94934,-1.0832 8.61334,-2.2851 224.63395,-57.8864 335.4514,-187.69068 314.8673,-368.8151 -4.7165,-41.50227 -18.61463,-91.06531 -31.1818,-111.2 C 925.55565,520.28656 848.2585,467.17888 756.32,458.81734 c -40.16477,-3.65283 -87.27894,2.78512 -121.90611,16.65799 -4.38055,1.75501 -3.72202,1.9543 -6.79235,-2.05559 -25.73405,-33.60889 -82.79783,-61.83619 -151.08788,-74.7375 -3.22649,-0.60954 -5.9327,-1.17462 -6.01379,-1.25571 -0.53283,-0.53283 26.16986,-26.66135 36.36013,-35.57831 108.74851,-95.15988 237.52966,-106.54658 372.12547,-32.90294 138.55703,75.81104 233.79993,210.85341 246.40763,349.37472 6.7237,73.87382 -10.2458,155.85213 -43.8179,211.68 -85.50112,142.1822 -212.64362,219.9109 -349.1152,213.4321 z m -188.56,-19.7518 c 4.092,-0.051 10.788,-0.051 14.88,0 4.092,0.051 0.744,0.092 -7.44,0.092 -8.184,0 -11.532,-0.042 -7.44,-0.092 z m -13.28,-0.3168 c 1.012,-0.063 2.668,-0.063 3.68,0 1.012,0.063 0.184,0.1155 -1.84,0.1155 -2.024,0 -2.852,-0.052 -1.84,-0.1155 z m 37.93254,0 c 1.10688,-0.063 2.83488,-0.062 3.84,0 1.00509,0.063 0.0995,0.1146 -2.01254,0.1139 -2.112,0 -2.93437,-0.052 -1.82746,-0.115 z M 524.4,1083.0465 c 0.748,-0.067 1.972,-0.067 2.72,0 0.748,0.067 0.136,0.1225 -1.36,0.1225 -1.496,0 -2.108,-0.055 -1.36,-0.1225 z m 51.52,0 c 0.748,-0.067 1.972,-0.067 2.72,0 0.748,0.067 0.136,0.1225 -1.36,0.1225 -1.496,0 -2.108,-0.055 -1.36,-0.1225 z m -56.64714,-0.3167 c 0.56807,-0.071 1.57607,-0.072 2.24,0 0.66394,0.069 0.19914,0.1271 -1.03286,0.1286 -1.232,0 -1.7752,-0.055 -1.20714,-0.126 z m 62.08,0 c 0.56807,-0.071 1.57607,-0.072 2.24,0 0.66394,0.069 0.19914,0.1271 -1.03286,0.1286 -1.232,0 -1.7752,-0.055 -1.20714,-0.126 z M 515.28,1082.4116 c 0.484,-0.073 1.276,-0.073 1.76,0 0.484,0.073 0.088,0.1333 -0.88,0.1333 -0.968,0 -1.364,-0.06 -0.88,-0.1333 z m 70.88,0 c 0.572,-0.071 1.508,-0.071 2.08,0 0.572,0.071 0.104,0.129 -1.04,0.129 -1.144,0 -1.612,-0.058 -1.04,-0.129 z m -74.72,-0.3178 c 0.484,-0.073 1.276,-0.073 1.76,0 0.484,0.073 0.088,0.1333 -0.88,0.1333 -0.968,0 -1.364,-0.06 -0.88,-0.1333 z m 79.04,0 c 0.484,-0.073 1.276,-0.073 1.76,0 0.484,0.073 0.088,0.1333 -0.88,0.1333 -0.968,0 -1.364,-0.06 -0.88,-0.1333 z m -82.4,-0.3166 c 0.396,-0.076 1.044,-0.076 1.44,0 0.396,0.076 0.072,0.1387 -0.72,0.1387 -0.792,0 -1.116,-0.062 -0.72,-0.1387 z m 86.24438,0 c 0.48644,-0.074 1.20644,-0.072 1.6,0 0.3936,0.076 -0.004,0.1361 -0.88438,0.1337 -0.88,0 -1.20202,-0.065 -0.71562,-0.1381 z M 504.88,1081.454 c 0.396,-0.076 1.044,-0.076 1.44,0 0.396,0.076 0.072,0.1386 -0.72,0.1386 -0.792,0 -1.116,-0.062 -0.72,-0.1386 z m 92.96438,0 c 0.48644,-0.073 1.20644,-0.072 1.6,0 0.3936,0.076 -0.004,0.1362 -0.88438,0.1338 -0.88,0 -1.20202,-0.065 -0.71562,-0.1382 z m -95.84064,-0.3167 c 0.39805,-0.077 0.97405,-0.074 1.28,0.01 0.30592,0.08 -0.0198,0.1428 -0.72374,0.1392 -0.704,0 -0.95434,-0.069 -0.55626,-0.1456 z m 99.2,0 c 0.39805,-0.077 0.97405,-0.074 1.28,0.01 0.30592,0.08 -0.0198,0.1428 -0.72374,0.1392 -0.704,0 -0.95434,-0.069 -0.55626,-0.1456 z M 499.28,1080.8192 c 0.308,-0.081 0.812,-0.081 1.12,0 0.308,0.081 0.056,0.1463 -0.56,0.1463 -0.616,0 -0.868,-0.066 -0.56,-0.1463 z m 104.8,-0.01 c 0.396,-0.076 1.044,-0.076 1.44,0 0.396,0.076 0.072,0.1386 -0.72,0.1386 -0.792,0 -1.116,-0.062 -0.72,-0.1386 z m -107.36,-0.3148 c 0.308,-0.081 0.812,-0.081 1.12,0 0.308,0.08 0.056,0.1464 -0.56,0.1464 -0.616,0 -0.868,-0.066 -0.56,-0.1464 z m 110.4,0 c 0.308,-0.081 0.812,-0.081 1.12,0 0.308,0.08 0.056,0.1464 -0.56,0.1464 -0.616,0 -0.868,-0.066 -0.56,-0.1464 z m -112.96,-0.32 c 0.308,-0.081 0.812,-0.081 1.12,0 0.308,0.081 0.056,0.1464 -0.56,0.1464 -0.616,0 -0.868,-0.066 -0.56,-0.1464 z m 115.68374,-0.01 c 0.39805,-0.077 0.97405,-0.074 1.28,0.01 0.30592,0.08 -0.0198,0.1427 -0.72374,0.1391 -0.704,0 -0.95434,-0.069 -0.55626,-0.1456 z m -117.91766,-0.3155 c 0.31136,-0.081 0.74336,-0.076 0.96,0.012 0.21667,0.088 -0.0381,0.154 -0.56608,0.1475 -0.528,-0.01 -0.70525,-0.078 -0.39392,-0.1594 z m 120.63392,0 c 0.308,-0.081 0.812,-0.081 1.12,0 0.308,0.081 0.056,0.1464 -0.56,0.1464 -0.616,0 -0.868,-0.066 -0.56,-0.1464 z m -123.2,-0.32 c 0.308,-0.08 0.812,-0.08 1.12,0 0.308,0.081 0.056,0.1464 -0.56,0.1464 -0.616,0 -0.868,-0.066 -0.56,-0.1464 z m 125.76,0 c 0.308,-0.08 0.812,-0.08 1.12,0 0.308,0.081 0.056,0.1464 -0.56,0.1464 -0.616,0 -0.868,-0.066 -0.56,-0.1464 z m -127.84,-0.3113 c 0.22,-0.089 0.58,-0.089 0.8,0 0.22,0.089 0.04,0.1614 -0.4,0.1614 -0.44,0 -0.62,-0.073 -0.4,-0.1614 z m 130.40608,-0.01 c 0.31136,-0.081 0.74336,-0.076 0.96,0.012 0.21667,0.088 -0.0381,0.154 -0.56608,0.1475 -0.528,-0.01 -0.70525,-0.078 -0.39392,-0.1594 z m -132.48,-0.32 c 0.31136,-0.081 0.74336,-0.076 0.96,0.012 0.21667,0.088 -0.0381,0.154 -0.56608,0.1475 -0.528,-0.01 -0.70525,-0.078 -0.39392,-0.1594 z m 134.72,0 c 0.31136,-0.081 0.74336,-0.076 0.96,0.012 0.21667,0.088 -0.0381,0.154 -0.56608,0.1475 -0.528,-0.01 -0.70525,-0.078 -0.39392,-0.1594 z M 483.12,1078.5867 c 0.22,-0.089 0.58,-0.089 0.8,0 0.22,0.089 0.04,0.1614 -0.4,0.1614 -0.44,0 -0.62,-0.073 -0.4,-0.1614 z m 139.04608,-0.01 c 0.31136,-0.081 0.74336,-0.076 0.96,0.012 0.21667,0.088 -0.0381,0.154 -0.56608,0.1475 -0.528,-0.01 -0.70525,-0.078 -0.39392,-0.1594 z M 481.2,1078.2666 c 0.22,-0.089 0.58,-0.089 0.8,0 0.22,0.089 0.04,0.1614 -0.4,0.1614 -0.44,0 -0.62,-0.073 -0.4,-0.1614 z m 143.20608,-0.01 c 0.31136,-0.081 0.74336,-0.076 0.96,0.012 0.21667,0.088 -0.0381,0.154 -0.56608,0.1475 -0.528,-0.01 -0.70525,-0.078 -0.39392,-0.1594 z M 479.28,1077.9465 c 0.22,-0.089 0.58,-0.089 0.8,0 0.22,0.089 0.04,0.1614 -0.4,0.1614 -0.44,0 -0.62,-0.073 -0.4,-0.1614 z m 147.36608,-0.01 c 0.31136,-0.081 0.74336,-0.076 0.96,0.012 0.21667,0.088 -0.0381,0.154 -0.56608,0.1475 -0.528,-0.01 -0.70525,-0.078 -0.39392,-0.1594 z M 477.36,1077.6264 c 0.22,-0.089 0.58,-0.089 0.8,0 0.22,0.089 0.04,0.1614 -0.4,0.1614 -0.44,0 -0.62,-0.073 -0.4,-0.1614 z m 151.36,0 c 0.22,-0.089 0.58,-0.089 0.8,0 0.22,0.089 0.04,0.1614 -0.4,0.1614 -0.44,0 -0.62,-0.073 -0.4,-0.1614 z m -153.28,-0.32 c 0.22,-0.089 0.58,-0.089 0.8,0 0.22,0.089 0.04,0.1614 -0.4,0.1614 -0.44,0 -0.62,-0.073 -0.4,-0.1614 z m 155.36608,-0.01 c 0.31136,-0.081 0.74336,-0.076 0.96,0.012 0.21667,0.088 -0.0381,0.154 -0.56608,0.1475 -0.528,-0.01 -0.70525,-0.078 -0.39392,-0.1594 z M 473.86,1076.9796 c 0.23101,-0.092 0.50701,-0.081 0.61334,0.025 0.10634,0.1064 -0.0827,0.182 -0.42,0.1681 -0.3728,-0.015 -0.4486,-0.091 -0.19334,-0.1933 z m 159.02,0.01 c 0.22,-0.089 0.58,-0.089 0.8,0 0.22,0.089 0.04,0.1614 -0.4,0.1614 -0.44,0 -0.62,-0.073 -0.4,-0.1614 z m -160.96,-0.32 c 0.22,-0.089 0.58,-0.089 0.8,0 0.22,0.089 0.04,0.1614 -0.4,0.1614 -0.44,0 -0.62,-0.073 -0.4,-0.1614 z m 162.88,0 c 0.22,-0.089 0.58,-0.089 0.8,0 0.22,0.089 0.04,0.1614 -0.4,0.1614 -0.44,0 -0.62,-0.073 -0.4,-0.1614 z m -164.46,-0.3267 c 0.23101,-0.092 0.50701,-0.081 0.61334,0.025 0.10634,0.1063 -0.0827,0.182 -0.42,0.1681 -0.3728,-0.015 -0.4486,-0.091 -0.19334,-0.1934 z m 166.38,0.01 c 0.22,-0.089 0.58,-0.089 0.8,0 0.22,0.089 0.04,0.1614 -0.4,0.1614 -0.44,0 -0.62,-0.073 -0.4,-0.1614 z m -167.98,-0.3266 c 0.23101,-0.092 0.50701,-0.081 0.61334,0.025 0.10634,0.1063 -0.0827,0.1819 -0.42,0.1681 -0.3728,-0.015 -0.4486,-0.091 -0.19334,-0.1934 z m 169.9,0.01 c 0.22,-0.089 0.58,-0.089 0.8,0 0.22,0.089 0.04,0.1614 -0.4,0.1614 -0.44,0 -0.62,-0.073 -0.4,-0.1614 z m -171.5,-0.3267 c 0.23101,-0.092 0.50701,-0.081 0.61334,0.025 0.10634,0.1064 -0.0827,0.182 -0.42,0.1681 -0.3728,-0.015 -0.4486,-0.091 -0.19334,-0.1933 z m 173.44,0 c 0.23101,-0.092 0.50701,-0.081 0.61334,0.025 0.10634,0.1064 -0.0827,0.182 -0.42,0.1681 -0.3728,-0.015 -0.4486,-0.091 -0.19334,-0.1933 z m -175.04,-0.32 c 0.23101,-0.092 0.50701,-0.081 0.61334,0.025 0.10634,0.1064 -0.0827,0.182 -0.42,0.1681 -0.3728,-0.015 -0.4486,-0.091 -0.19334,-0.1933 z m 176.62,0.01 c 0.22,-0.089 0.58,-0.089 0.8,0 0.22,0.089 0.04,0.1614 -0.4,0.1614 -0.44,0 -0.62,-0.073 -0.4,-0.1614 z m -178.22,-0.3267 c 0.23101,-0.092 0.50701,-0.081 0.61334,0.025 0.10634,0.1063 -0.0827,0.182 -0.42,0.1681 -0.3728,-0.015 -0.4486,-0.091 -0.19334,-0.1934 z m 180.14,0.01 c 0.22,-0.089 0.58,-0.089 0.8,0 0.22,0.089 0.04,0.1614 -0.4,0.1614 -0.44,0 -0.62,-0.073 -0.4,-0.1614 z m 1.94,-0.3266 c 0.23101,-0.092 0.50701,-0.081 0.61334,0.025 0.10634,0.1064 -0.0827,0.182 -0.42,0.1681 -0.3728,-0.015 -0.4486,-0.091 -0.19334,-0.1933 z m -184.96,-0.32 c 0.23101,-0.092 0.50701,-0.081 0.61334,0.025 0.10634,0.1064 -0.0827,0.182 -0.42,0.1681 -0.3728,-0.015 -0.4486,-0.091 -0.19334,-0.1933 z m 186.56,0 c 0.23101,-0.092 0.50701,-0.081 0.61334,0.025 0.10634,0.1064 -0.0827,0.182 -0.42,0.1681 -0.3728,-0.015 -0.4486,-0.091 -0.19334,-0.1933 z m 1.58,-0.3134 c 0.22,-0.089 0.58,-0.089 0.8,0 0.22,0.089 0.04,0.1614 -0.4,0.1614 -0.44,0 -0.62,-0.073 -0.4,-0.1614 z M 458.18,1073.78 c 0.23101,-0.093 0.50701,-0.081 0.61334,0.025 0.10634,0.1064 -0.0827,0.182 -0.42,0.1681 -0.3728,-0.015 -0.4486,-0.091 -0.19334,-0.1933 z m 192.96,0 c 0.23101,-0.093 0.50701,-0.081 0.61334,0.025 0.10634,0.1064 -0.0827,0.182 -0.42,0.1681 -0.3728,-0.015 -0.4486,-0.091 -0.19334,-0.1933 z m 1.6,-0.32 c 0.23101,-0.092 0.50701,-0.081 0.61334,0.025 0.10634,0.1064 -0.0827,0.182 -0.42,0.1681 -0.3728,-0.015 -0.4486,-0.091 -0.19334,-0.1933 z m -197.44,-0.32 c 0.23101,-0.092 0.50701,-0.081 0.61334,0.025 0.10634,0.1064 -0.0827,0.182 -0.42,0.1681 -0.3728,-0.015 -0.4486,-0.091 -0.19334,-0.1933 z m 199.04,0 c 0.23101,-0.092 0.50701,-0.081 0.61334,0.025 0.10634,0.1064 -0.0827,0.182 -0.42,0.1681 -0.3728,-0.015 -0.4486,-0.091 -0.19334,-0.1933 z m 1.6,-0.32 c 0.23101,-0.092 0.50701,-0.081 0.61334,0.025 0.10634,0.1064 -0.0827,0.182 -0.42,0.1681 -0.3728,-0.015 -0.4486,-0.091 -0.19334,-0.1933 z m 1.6,-0.32 c 0.23101,-0.092 0.50701,-0.081 0.61334,0.025 0.10634,0.1064 -0.0827,0.182 -0.42,0.1681 -0.3728,-0.015 -0.4486,-0.091 -0.19334,-0.1933 z m 2.88,-0.64 c 0.23101,-0.092 0.50701,-0.081 0.61334,0.025 0.10634,0.1064 -0.0827,0.182 -0.42,0.1681 -0.3728,-0.015 -0.4486,-0.091 -0.19334,-0.1933 z m 4.16,-0.96 c 0.23101,-0.092 0.50701,-0.081 0.61334,0.025 0.10634,0.1064 -0.0827,0.182 -0.42,0.1681 -0.3728,-0.015 -0.4486,-0.091 -0.19334,-0.1933 z M 495.74112,956.00102 c 2.2336,-0.0549 5.9776,-0.0551 8.32,0 2.34237,0.0548 0.51488,0.0997 -4.06112,0.0999 -4.576,1.9e-4 -6.49251,-0.0446 -4.25888,-0.0996 z m -8.13267,-0.31574 c 0.75267,-0.0676 1.90467,-0.0667 2.56,0.003 0.65536,0.0688 0.0396,0.12406 -1.36845,0.12291 -1.408,0 -1.94419,-0.0574 -1.19155,-0.12502 z m 23.84726,-0.004 c 1.54864,-0.0588 3.99664,-0.0585 5.44,0 1.44336,0.0592 0.17629,0.10726 -2.81571,0.10688 -2.992,0 -4.17293,-0.0488 -2.62429,-0.10755 z M 484.72,955.388 c 0.22,-0.0888 0.58,-0.0888 0.8,0 0.22,0.0888 0.04,0.16141 -0.4,0.16141 -0.44,0 -0.62,-0.0726 -0.4,-0.16141 z m 36.64,-0.0234 c 0.836,-0.0659 2.204,-0.0659 3.04,0 0.836,0.0659 0.152,0.11984 -1.52,0.11984 -1.672,0 -2.356,-0.0539 -1.52,-0.11984 z m -38.56,-0.2967 c 0.22,-0.0888 0.58,-0.0888 0.8,0 0.22,0.0888 0.04,0.16141 -0.4,0.16141 -0.44,0 -0.62,-0.0726 -0.4,-0.16141 z m 44.80845,-0.0227 c 0.75267,-0.0676 1.90467,-0.0666 2.56,0.003 0.65536,0.0688 0.0395,0.12407 -1.36845,0.12292 -1.408,0 -1.94419,-0.0574 -1.19155,-0.12503 z M 480.88,954.74797 c 0.22,-0.0888 0.58,-0.0888 0.8,0 0.22,0.0888 0.04,0.16141 -0.4,0.16141 -0.44,0 -0.62,-0.0726 -0.4,-0.16141 z m 51.84573,-0.0198 c 0.57517,-0.0712 1.43917,-0.0698 1.92,0.003 0.48086,0.073 0.0102,0.13126 -1.04573,0.12947 -1.056,-0.003 -1.44941,-0.0615 -0.87427,-0.13274 z M 479.3,954.42144 c 0.23101,-0.0924 0.50701,-0.0811 0.61334,0.0253 0.10634,0.10634 -0.0827,0.18198 -0.42,0.1681 -0.3728,-0.0154 -0.4486,-0.0912 -0.19334,-0.19335 z m 57.58573,-0.0134 c 0.57517,-0.0712 1.43917,-0.0698 1.92,0.003 0.48086,0.073 0.0102,0.13126 -1.04573,0.12947 -1.056,-0.003 -1.44941,-0.0615 -0.87427,-0.13273 z M 477.7,954.10131 c 0.23101,-0.0924 0.50701,-0.0811 0.61334,0.0253 0.10634,0.10634 -0.0827,0.18199 -0.42,0.1681 -0.3728,-0.0154 -0.4486,-0.0912 -0.19334,-0.19335 z m 63.18438,-0.0109 c 0.48644,-0.0735 1.20644,-0.0716 1.6,0.004 0.3936,0.0759 -0.004,0.13613 -0.88438,0.13373 -0.88,-0.003 -1.20202,-0.0645 -0.71562,-0.13811 z M 476.1,953.78147 c 0.23101,-0.0924 0.50701,-0.0811 0.61334,0.0253 0.10634,0.10634 -0.0827,0.18199 -0.42,0.1681 -0.3728,-0.0154 -0.4486,-0.0912 -0.19334,-0.19335 z m 68.14,-0.007 c 0.396,-0.0763 1.044,-0.0763 1.44,0 0.396,0.0763 0.072,0.13866 -0.72,0.13866 -0.792,0 -1.116,-0.0624 -0.72,-0.13866 z M 474.5,953.4617 c 0.23101,-0.0924 0.50701,-0.0811 0.61334,0.0253 0.10634,0.10634 -0.0827,0.18199 -0.42,0.1681 -0.3728,-0.0154 -0.4486,-0.0912 -0.19334,-0.19334 z m 72.94374,-0.008 c 0.39805,-0.0765 0.97405,-0.0736 1.28,0.006 0.30592,0.0801 -0.0198,0.14272 -0.72374,0.13917 -0.704,-0.004 -0.95434,-0.0691 -0.55626,-0.14563 z M 472.9,953.14141 c 0.23101,-0.0924 0.50701,-0.0811 0.61334,0.0253 0.10634,0.10633 -0.0827,0.18198 -0.42,0.16809 -0.3728,-0.0154 -0.4486,-0.0912 -0.19334,-0.19334 z m 77.42374,-0.008 c 0.39805,-0.0765 0.97405,-0.0736 1.28,0.006 0.30592,0.0801 -0.0198,0.14272 -0.72374,0.13917 -0.704,-0.004 -0.95434,-0.0691 -0.55626,-0.14564 z m 2.71626,-0.31424 c 0.308,-0.0805 0.812,-0.0805 1.12,0 0.308,0.0805 0.056,0.14633 -0.56,0.14633 -0.616,0 -0.868,-0.0659 -0.56,-0.14633 z m -83.02,-0.31802 c 0.23101,-0.0924 0.50701,-0.0811 0.61334,0.0253 0.10634,0.10634 -0.0827,0.18199 -0.42,0.1681 -0.3728,-0.0154 -0.4486,-0.0912 -0.19334,-0.19335 z m 85.58,-0.003 c 0.308,-0.0805 0.812,-0.0805 1.12,0 0.308,0.0805 0.056,0.14634 -0.56,0.14634 -0.616,0 -0.868,-0.0659 -0.56,-0.14634 z m 2.56608,-0.32118 c 0.31136,-0.0811 0.74336,-0.0758 0.96,0.0118 0.21667,0.0876 -0.0381,0.15401 -0.56608,0.14752 -0.528,-0.006 -0.70525,-0.0782 -0.39392,-0.15939 z M 467.14,951.86026 c 0.23101,-0.0924 0.50701,-0.0811 0.61334,0.0253 0.10634,0.10633 -0.0827,0.18198 -0.42,0.16809 -0.3728,-0.0154 -0.4486,-0.0912 -0.19334,-0.19334 z m 93.26608,-0.003 c 0.31136,-0.0811 0.74336,-0.0758 0.96,0.0118 0.21667,0.0876 -0.0381,0.15401 -0.56608,0.14752 -0.528,-0.006 -0.70525,-0.0782 -0.39392,-0.1594 z m 2.24,-0.32 c 0.31136,-0.0811 0.74336,-0.0758 0.96,0.0118 0.21667,0.0876 -0.0381,0.15401 -0.56608,0.14752 -0.528,-0.006 -0.70525,-0.0782 -0.39392,-0.1594 z m 2.24,-0.32 c 0.31136,-0.0811 0.74336,-0.0758 0.96,0.0118 0.21667,0.0876 -0.0381,0.15401 -0.56608,0.14752 -0.528,-0.006 -0.70525,-0.0782 -0.39392,-0.1594 z m 2.07392,-0.31018 c 0.22,-0.0888 0.58,-0.0888 0.8,0 0.22,0.0888 0.04,0.16141 -0.4,0.16141 -0.44,0 -0.62,-0.0726 -0.4,-0.16141 z m 1.92,-0.32 c 0.22,-0.0888 0.58,-0.0888 0.8,0 0.22,0.0888 0.04,0.16141 -0.4,0.16141 -0.44,0 -0.62,-0.0726 -0.4,-0.16141 z m 1.92,-0.32 c 0.22,-0.0888 0.58,-0.0888 0.8,0 0.22,0.0888 0.04,0.16141 -0.4,0.16141 -0.44,0 -0.62,-0.0726 -0.4,-0.16141 z m 1.92,-0.32 c 0.22,-0.0888 0.58,-0.0888 0.8,0 0.22,0.0888 0.04,0.16141 -0.4,0.16141 -0.44,0 -0.62,-0.0726 -0.4,-0.16141 z m 1.94,-0.32666 c 0.23101,-0.0924 0.50701,-0.0811 0.61334,0.0253 0.10634,0.10634 -0.0827,0.18199 -0.42,0.1681 -0.3728,-0.0154 -0.4486,-0.0912 -0.19334,-0.19334 z m 1.58,-0.31334 c 0.22,-0.0888 0.58,-0.0888 0.8,0 0.22,0.0888 0.04,0.16141 -0.4,0.16141 -0.44,0 -0.62,-0.0726 -0.4,-0.16141 z m 1.94,-0.32666 c 0.23101,-0.0924 0.50701,-0.0811 0.61334,0.0253 0.10634,0.10634 -0.0827,0.18199 -0.42,0.1681 -0.3728,-0.0154 -0.4486,-0.0912 -0.19334,-0.19334 z m 1.6,-0.32 c 0.23101,-0.0924 0.50701,-0.0811 0.61334,0.0253 0.10634,0.10634 -0.0827,0.18199 -0.42,0.1681 -0.3728,-0.0154 -0.4486,-0.0912 -0.19334,-0.19334 z m 1.6,-0.32 c 0.23101,-0.0924 0.50701,-0.0811 0.61334,0.0253 0.10634,0.10634 -0.0827,0.18199 -0.42,0.1681 -0.3728,-0.0154 -0.4486,-0.0912 -0.19334,-0.19334 z m 1.6,-0.32 c 0.23101,-0.0924 0.50701,-0.0811 0.61334,0.0253 0.10634,0.10634 -0.0827,0.18199 -0.42,0.1681 -0.3728,-0.0154 -0.4486,-0.0912 -0.19334,-0.19334 z m 1.6,-0.32 c 0.23101,-0.0924 0.50701,-0.0811 0.61334,0.0253 0.10634,0.10634 -0.0827,0.18199 -0.42,0.1681 -0.3728,-0.0154 -0.4486,-0.0912 -0.19334,-0.19334 z m 1.6,-0.32 c 0.23101,-0.0924 0.50701,-0.0811 0.61334,0.0253 0.10634,0.10634 -0.0827,0.18199 -0.42,0.1681 -0.3728,-0.0154 -0.4486,-0.0912 -0.19334,-0.19334 z m 2.88,-0.64 c 0.23101,-0.0924 0.50701,-0.0811 0.61334,0.0253 0.10634,0.10634 -0.0827,0.18199 -0.42,0.1681 -0.3728,-0.0154 -0.4486,-0.0912 -0.19334,-0.19334 z m 2.88,-0.64 c 0.23101,-0.0924 0.50701,-0.0811 0.61334,0.0253 0.10634,0.10634 -0.0827,0.18199 -0.42,0.1681 -0.3728,-0.0154 -0.4486,-0.0912 -0.19334,-0.19334 z M 963.22525,816.21216 c 0.0154,-0.3728 0.0912,-0.44861 0.19334,-0.19334 0.0924,0.231 0.0811,0.507 -0.0253,0.61334 -0.10633,0.10634 -0.18198,-0.0827 -0.16809,-0.42 z m 0.96,-4.16 c 0.0154,-0.3728 0.0912,-0.44861 0.19334,-0.19334 0.0924,0.231 0.0811,0.507 -0.0253,0.61334 -0.10633,0.10634 -0.18198,-0.0827 -0.16809,-0.42 z m 0.64,-2.88 c 0.0154,-0.3728 0.0912,-0.44861 0.19334,-0.19334 0.0924,0.231 0.0811,0.507 -0.0253,0.61334 -0.10633,0.10634 -0.18198,-0.0827 -0.16809,-0.42 z m 0.32,-1.6 c 0.0154,-0.3728 0.0912,-0.44861 0.19334,-0.19334 0.0925,0.231 0.0811,0.507 -0.0253,0.61334 -0.10633,0.10634 -0.18198,-0.0827 -0.16809,-0.42 z m 0.32,-1.6 c 0.0154,-0.3728 0.0912,-0.44861 0.19334,-0.19334 0.0924,0.231 0.0811,0.507 -0.0253,0.61334 -0.10633,0.10634 -0.18198,-0.0827 -0.16809,-0.42 z m 0.32,-1.6 c 0.0154,-0.3728 0.0912,-0.44861 0.19334,-0.19334 0.0924,0.231 0.0811,0.507 -0.0253,0.61334 -0.10633,0.10634 -0.18198,-0.0827 -0.16809,-0.42 z m 0.34528,-1.73334 c 0,-0.44 0.0726,-0.62 0.16141,-0.4 0.0888,0.22 0.0888,0.58 0,0.8 -0.0888,0.22 -0.16141,0.04 -0.16141,-0.4 z m 0.29472,-1.78666 c 0.0154,-0.3728 0.0912,-0.44861 0.19334,-0.19334 0.0924,0.231 0.0811,0.507 -0.0253,0.61334 -0.10633,0.10634 -0.18198,-0.0827 -0.16809,-0.42 z m 0.34528,-1.73334 c 0,-0.44 0.0726,-0.62 0.16141,-0.4 0.0888,0.22 0.0888,0.58 0,0.8 -0.0888,0.22 -0.16141,0.04 -0.16141,-0.4 z m 0.32,-1.92 c 0,-0.44 0.0726,-0.62 0.16141,-0.4 0.0888,0.22 0.0888,0.58 0,0.8 -0.0888,0.22 -0.16141,0.04 -0.16141,-0.4 z m 0.32,-1.92 c 0,-0.44 0.0726,-0.62 0.16141,-0.4 0.0888,0.22 0.0888,0.58 0,0.8 -0.0888,0.22 -0.16141,0.04 -0.16141,-0.4 z m 0.33184,-2.08 c 0.006,-0.528 0.0782,-0.70525 0.15939,-0.39392 0.0811,0.31136 0.0758,0.74336 -0.0118,0.96 -0.0876,0.21667 -0.15402,-0.0381 -0.14752,-0.56608 z m 0.32,-2.24 c 0.006,-0.528 0.0782,-0.70525 0.15939,-0.39392 0.0811,0.31136 0.0758,0.74336 -0.0118,0.96 -0.0877,0.21667 -0.15402,-0.0381 -0.14752,-0.56608 z m 0.32,-2.24 c 0.006,-0.528 0.0782,-0.70525 0.15939,-0.39392 0.0811,0.31136 0.0758,0.74336 -0.0118,0.96 -0.0876,0.21667 -0.15402,-0.0381 -0.14752,-0.56608 z m 0.33187,-2.4 c 0,-0.616 0.0659,-0.868 0.14634,-0.56 0.0805,0.308 0.0805,0.812 0,1.12 -0.0805,0.308 -0.14634,0.056 -0.14634,-0.56 z m 0.32,-2.56 c 0,-0.616 0.0659,-0.868 0.14634,-0.56 0.0805,0.308 0.0805,0.812 0,1.12 -0.0805,0.308 -0.14634,0.056 -0.14634,-0.56 z m 0.32646,-2.72 c 0.004,-0.704 0.0691,-0.95434 0.14564,-0.55626 0.0765,0.39805 0.0736,0.97405 -0.006,1.28 -0.0801,0.30592 -0.14272,-0.0198 -0.13917,-0.72374 z m -798.77544,-1.94666 c 0.0154,-0.3728 0.0912,-0.44861 0.19334,-0.19334 0.0924,0.231 0.0811,0.507 -0.0252,0.61334 -0.10634,0.10634 -0.18197,-0.0827 -0.16807,-0.42 z M 969.68717,778 c 0,-0.792 0.0624,-1.116 0.13865,-0.72 0.0763,0.396 0.0763,1.044 0,1.44 -0.0763,0.396 -0.13865,0.072 -0.13865,-0.72 z m 0.32435,-3.36 c 0.003,-0.88 0.0645,-1.20202 0.13811,-0.71562 0.0735,0.48644 0.0716,1.20644 -0.004,1.6 -0.0759,0.3936 -0.13613,-0.004 -0.13373,-0.88438 z m -801.02626,-2.26666 c 0.0154,-0.3728 0.0912,-0.4486 0.19334,-0.19334 0.0924,0.23101 0.0811,0.50701 -0.0252,0.61334 -0.10634,0.10634 -0.18197,-0.0827 -0.16807,-0.42 z M 970.3359,770.96 c 0,-0.968 0.06,-1.364 0.13332,-0.88 0.0733,0.484 0.0733,1.276 0,1.76 -0.0734,0.484 -0.13332,0.088 -0.13332,-0.88 z m -801.99064,-1.46666 c 0.0154,-0.3728 0.0912,-0.4486 0.19334,-0.19334 0.0924,0.23101 0.0811,0.50701 -0.0252,0.61334 -0.10634,0.10634 -0.18197,-0.0827 -0.16807,-0.42 z M 970.66758,766.48 c 0,-1.32 0.0565,-1.86 0.12554,-1.2 0.069,0.66 0.069,1.74 0,2.4 -0.0691,0.66 -0.12554,0.12 -0.12554,-1.2 z m -802.96232,0.13334 c 0.0154,-0.3728 0.0912,-0.4486 0.19334,-0.19334 0.0924,0.23101 0.0811,0.50701 -0.0252,0.61334 -0.10634,0.10634 -0.18197,-0.0827 -0.16807,-0.42 z m -0.64,-2.88 c 0.0154,-0.3728 0.0912,-0.4486 0.19334,-0.19334 0.0924,0.23101 0.0811,0.50701 -0.0252,0.61334 -0.10634,0.10634 -0.18197,-0.0827 -0.16807,-0.42 z M 970.9984,760.4 c 0,-1.848 0.0529,-2.604 0.1175,-1.68 0.0646,0.924 0.0646,2.436 0,3.36 -0.0646,0.924 -0.1175,0.168 -0.1175,-1.68 z m -804.25314,1.73334 c 0.0154,-0.3728 0.0912,-0.4486 0.19334,-0.19334 0.0924,0.23101 0.0811,0.50701 -0.0252,0.61334 -0.10634,0.10634 -0.18197,-0.0827 -0.16807,-0.42 z m -0.32,-1.6 c 0.0154,-0.3728 0.0912,-0.4486 0.19334,-0.19334 0.0924,0.23101 0.0811,0.50701 -0.0252,0.61334 -0.10634,0.10634 -0.18197,-0.0827 -0.16807,-0.42 z m -0.32,-1.6 c 0.0154,-0.3728 0.0912,-0.4486 0.19334,-0.19334 0.0924,0.23101 0.0811,0.50701 -0.0252,0.61334 -0.10634,0.10634 -0.18197,-0.0827 -0.16807,-0.42 z m -0.32,-1.6 c 0.0154,-0.3728 0.0912,-0.4486 0.19334,-0.19334 0.0924,0.23101 0.0811,0.50701 -0.0252,0.61334 -0.10634,0.10634 -0.18197,-0.0827 -0.16807,-0.42 z M 971.34426,745.36 c 0,-6.248 0.0429,-8.804 0.0953,-5.68 0.0524,3.124 0.0524,8.236 0,11.36 -0.0524,3.124 -0.0953,0.568 -0.0953,-5.68 z m -805.879,10.37334 c 0.0154,-0.3728 0.0912,-0.4486 0.19334,-0.19334 0.0924,0.23101 0.0811,0.50701 -0.0252,0.61334 -0.10634,0.10634 -0.18197,-0.0827 -0.16807,-0.42 z M 165.17052,754 c 0,-0.44 0.0726,-0.62 0.16141,-0.4 0.0888,0.22 0.0888,0.58 0,0.8 -0.0888,0.22 -0.16141,0.04 -0.16141,-0.4 z m -0.34526,-1.78666 c 0.0154,-0.3728 0.0912,-0.4486 0.19334,-0.19334 0.0924,0.23101 0.0811,0.50701 -0.0252,0.61334 -0.10634,0.10634 -0.18197,-0.0827 -0.16807,-0.42 z M 164.53052,750.48 c 0,-0.44 0.0726,-0.62 0.16141,-0.4 0.0888,0.22 0.0888,0.58 0,0.8 -0.0888,0.22 -0.16141,0.04 -0.16141,-0.4 z m -0.32,-1.92 c 0,-0.44 0.0726,-0.62 0.16141,-0.4 0.0888,0.22 0.0888,0.58 0,0.8 -0.0888,0.22 -0.16141,0.04 -0.16141,-0.4 z m -0.32,-1.92 c 0,-0.44 0.0726,-0.62 0.16141,-0.4 0.0888,0.22 0.0888,0.58 0,0.8 -0.0888,0.22 -0.16141,0.04 -0.16141,-0.4 z m -0.32,-1.92 c 0,-0.44 0.0726,-0.62 0.16141,-0.4 0.0888,0.22 0.0888,0.58 0,0.8 -0.0888,0.22 -0.16141,0.04 -0.16141,-0.4 z m -0.32,-1.92 c 0,-0.44 0.0726,-0.62 0.16141,-0.4 0.0888,0.22 0.0888,0.58 0,0.8 -0.0888,0.22 -0.16141,0.04 -0.16141,-0.4 z m 637.41473,-0.82666 c 0.0154,-0.3728 0.0912,-0.4486 0.19334,-0.19334 0.0924,0.23101 0.0811,0.50701 -0.0253,0.61334 -0.10633,0.10634 -0.18198,-0.0827 -0.16809,-0.42 z M 162.94238,740.72 c 0.007,-0.528 0.0782,-0.70525 0.15938,-0.39392 0.0811,0.31136 0.0758,0.74336 -0.0119,0.96 -0.0876,0.21667 -0.15403,-0.0381 -0.14751,-0.56608 z m 638.36287,-1.62666 c 0.0154,-0.3728 0.0912,-0.4486 0.19334,-0.19334 0.0924,0.23101 0.0811,0.50701 -0.0253,0.61334 -0.10633,0.10634 -0.18198,-0.0827 -0.16809,-0.42 z M 162.61052,738.64 c 0,-0.44 0.0726,-0.62 0.16141,-0.4 0.0888,0.22 0.0888,0.58 0,0.8 -0.0888,0.22 -0.16141,0.04 -0.16141,-0.4 z m 639.01473,-1.14666 c 0.0154,-0.3728 0.0912,-0.4486 0.19334,-0.19334 0.0924,0.23101 0.0811,0.50701 -0.0253,0.61334 -0.10633,0.10634 -0.18198,-0.0827 -0.16809,-0.42 z M 162.31424,736.4 c 0,-0.616 0.0659,-0.868 0.14635,-0.56 0.0805,0.308 0.0805,0.812 0,1.12 -0.0805,0.308 -0.14635,0.056 -0.14635,-0.56 z m 639.63101,-0.50666 c 0.0154,-0.3728 0.0912,-0.4486 0.19334,-0.19334 0.0924,0.23101 0.0811,0.50701 -0.0253,0.61334 -0.10633,0.10634 -0.18198,-0.0827 -0.16809,-0.42 z M 161.98238,734 c 0.007,-0.528 0.0782,-0.70525 0.15938,-0.39392 0.0811,0.31136 0.0758,0.74336 -0.0119,0.96 -0.0877,0.21667 -0.15403,-0.0381 -0.14751,-0.56608 z m 640.30815,0.16 c 0,-0.44 0.0726,-0.62 0.16141,-0.4 0.0888,0.22 0.0888,0.58 0,0.8 -0.0888,0.22 -0.16141,0.04 -0.16141,-0.4 z m 168.70918,-4 c 0,-1.936 0.0534,-2.68675 0.11712,-1.66832 0.0637,1.01843 0.0631,2.60243 0,3.52 -0.0644,0.91757 -0.11654,0.0843 -0.11581,-1.85168 z m -168.38918,2.08 c 0,-0.44 0.0726,-0.62 0.16141,-0.4 0.0888,0.22 0.0888,0.58 0,0.8 -0.0888,0.22 -0.16141,0.04 -0.16141,-0.4 z m -640.94815,-0.48 c 0.007,-0.528 0.0782,-0.70525 0.15938,-0.39392 0.0811,0.31136 0.0758,0.74336 -0.0119,0.96 -0.0876,0.21667 -0.15403,-0.0381 -0.14751,-0.56608 z m 643.38335,-1.3519 c 0.57517,-0.0712 1.43917,-0.0698 1.92,0.003 0.48086,0.073 0.0102,0.13126 -1.04573,0.12947 -1.056,-0.003 -1.44941,-0.0615 -0.87427,-0.13274 z M 161.35424,729.36 c 0,-0.616 0.0659,-0.868 0.14635,-0.56 0.0805,0.308 0.0805,0.812 0,1.12 -0.0805,0.308 -0.14635,0.056 -0.14635,-0.56 z m 647.5295,0.73366 c 0.39805,-0.0765 0.97405,-0.0736 1.28,0.006 0.30592,0.0801 -0.0198,0.14272 -0.72374,0.13917 -0.704,-0.004 -0.95434,-0.0691 -0.55626,-0.14563 z m 2.72234,-0.31542 c 0.31136,-0.0811 0.74336,-0.0758 0.96,0.0118 0.21667,0.0876 -0.0381,0.15402 -0.56608,0.14752 -0.528,-0.006 -0.70525,-0.0782 -0.39392,-0.15939 z m 2.24,-0.32 c 0.31136,-0.0811 0.74336,-0.0758 0.96,0.0118 0.21667,0.0877 -0.0381,0.15402 -0.56608,0.14752 -0.528,-0.006 -0.70525,-0.0782 -0.39392,-0.15939 z m 2.09392,-0.31683 c 0.23101,-0.0924 0.50701,-0.0811 0.61334,0.0253 0.10634,0.10633 -0.0827,0.18198 -0.42,0.16809 -0.3728,-0.0154 -0.4486,-0.0912 -0.19334,-0.19334 z m 1.58,-0.31335 c 0.22,-0.0888 0.58,-0.0888 0.8,0 0.22,0.0888 0.04,0.16141 -0.4,0.16141 -0.44,0 -0.62,-0.0726 -0.4,-0.16141 z m 1.94,-0.32665 c 0.23101,-0.0924 0.50701,-0.0811 0.61334,0.0253 0.10634,0.10633 -0.0827,0.18198 -0.42,0.16809 -0.3728,-0.0154 -0.4486,-0.0912 -0.19334,-0.19334 z m 2.88,-0.64 c 0.23101,-0.0924 0.50701,-0.0811 0.61334,0.0253 0.10634,0.10633 -0.0827,0.18198 -0.42,0.16809 -0.3728,-0.0154 -0.4486,-0.0912 -0.19334,-0.19334 z M 161.0407,726.64 c 0.004,-0.704 0.0691,-0.95434 0.14562,-0.55626 0.0765,0.39805 0.0736,0.97405 -0.006,1.28 -0.0801,0.30592 -0.14272,-0.0198 -0.13917,-0.72374 z m 59.14456,-0.34666 c 0.0154,-0.3728 0.0912,-0.4486 0.19334,-0.19334 0.0924,0.23101 0.0811,0.50701 -0.0252,0.61334 -0.10634,0.10634 -0.18197,-0.0827 -0.16807,-0.42 z M 970.66758,723.92 c 0,-1.32 0.0565,-1.86 0.12554,-1.2 0.069,0.66 0.069,1.74 0,2.4 -0.0691,0.66 -0.12554,0.12 -0.12554,-1.2 z M 160.7207,723.76 c 0.004,-0.704 0.0691,-0.95434 0.14562,-0.55626 0.0765,0.39805 0.0736,0.97405 -0.006,1.28 -0.0801,0.30592 -0.14272,-0.0198 -0.13917,-0.72374 z m -0.31354,-3.04 c 0,-0.792 0.0624,-1.116 0.13867,-0.72 0.0763,0.396 0.0763,1.044 0,1.44 -0.0763,0.396 -0.13867,0.072 -0.13867,-0.72 z m 58.4981,0.13334 c 0.0154,-0.3728 0.0912,-0.4486 0.19334,-0.19334 0.0924,0.23101 0.0811,0.50701 -0.0252,0.61334 -0.10634,0.10634 -0.18197,-0.0827 -0.16807,-0.42 z M 970.34243,719.12 c 0,-1.144 0.0581,-1.612 0.12906,-1.04 0.071,0.572 0.071,1.508 0,2.08 -0.071,0.572 -0.12906,0.104 -0.12906,-1.04 z m -810.25527,-1.6 c 0,-0.792 0.0624,-1.116 0.13867,-0.72 0.0763,0.396 0.0763,1.044 0,1.44 -0.0763,0.396 -0.13867,0.072 -0.13867,-0.72 z m 58.1781,0.45334 c 0.0154,-0.3728 0.0912,-0.4486 0.19334,-0.19334 0.0924,0.23101 0.0811,0.50701 -0.0252,0.61334 -0.10634,0.10634 -0.18197,-0.0827 -0.16807,-0.42 z m -0.32,-1.6 c 0.0154,-0.3728 0.0912,-0.4486 0.19334,-0.19334 0.0924,0.23101 0.0811,0.50701 -0.0252,0.61334 -0.10634,0.10634 -0.18197,-0.0827 -0.16807,-0.42 z M 970.01152,715.12 c 0.003,-0.88 0.0645,-1.20202 0.13811,-0.71562 0.0735,0.48644 0.0716,1.20644 -0.004,1.6 -0.0759,0.3936 -0.13613,-0.004 -0.13373,-0.88438 z M 159.77589,714 c 0,-0.968 0.06,-1.364 0.13331,-0.88 0.0733,0.484 0.0733,1.276 0,1.76 -0.0733,0.484 -0.13331,0.088 -0.13331,-0.88 z m 57.52937,-0.50666 c 0.0154,-0.3728 0.0912,-0.4486 0.19334,-0.19334 0.0924,0.23101 0.0811,0.50701 -0.0252,0.61334 -0.10634,0.10634 -0.18197,-0.0827 -0.16807,-0.42 z M 969.69152,711.6 c 0.003,-0.88 0.0645,-1.20202 0.13811,-0.71562 0.0735,0.48644 0.0716,1.20644 -0.004,1.6 -0.0759,0.3936 -0.13613,-0.004 -0.13373,-0.88438 z m -752.70626,0.29334 c 0.0154,-0.3728 0.0912,-0.4486 0.19334,-0.19334 0.0924,0.23101 0.0811,0.50701 -0.0252,0.61334 -0.10634,0.10634 -0.18197,-0.0827 -0.16807,-0.42 z M 159.45916,710 c 0.002,-1.056 0.0615,-1.44941 0.13275,-0.87427 0.0712,0.57517 0.0697,1.43917 -0.003,1.92 -0.073,0.48086 -0.13129,0.0102 -0.12949,-1.04573 z m 57.23136,0.16 c 0,-0.44 0.0726,-0.62 0.16141,-0.4 0.0888,0.22 0.0888,0.58 0,0.8 -0.0888,0.22 -0.16141,0.04 -0.16141,-0.4 z m 752.67665,-1.92 c 0,-0.792 0.0624,-1.116 0.13865,-0.72 0.0763,0.396 0.0763,1.044 0,1.44 -0.0762,0.396 -0.13865,0.072 -0.13865,-0.72 z m -753.02191,0.13334 c 0.0154,-0.3728 0.0912,-0.4486 0.19334,-0.19334 0.0924,0.23101 0.0811,0.50701 -0.0252,0.61334 -0.10634,0.10634 -0.18197,-0.0827 -0.16807,-0.42 z M 159.145,705.52 c 10e-4,-1.232 0.0593,-1.6968 0.12854,-1.03286 0.0693,0.66393 0.0681,1.67193 -0.003,2.24 -0.0707,0.56806 -0.12737,0.025 -0.12595,-1.20714 z m 56.90552,1.12 c 0,-0.44 0.0726,-0.62 0.16141,-0.4 0.0888,0.22 0.0888,0.58 0,0.8 -0.0888,0.22 -0.16141,0.04 -0.16141,-0.4 z M 969.0407,705.2 c 0.004,-0.704 0.0691,-0.95434 0.14564,-0.55626 0.0765,0.39805 0.0736,0.97405 -0.006,1.28 -0.0801,0.30592 -0.14272,-0.0198 -0.13917,-0.72374 z m -753.33544,-0.34666 c 0.0154,-0.3728 0.0912,-0.4486 0.19334,-0.19334 0.0924,0.23101 0.0811,0.50701 -0.0252,0.61334 -0.10634,0.10634 -0.18197,-0.0827 -0.16807,-0.42 z M 215.41052,703.12 c 0,-0.44 0.0726,-0.62 0.16141,-0.4 0.0888,0.22 0.0888,0.58 0,0.8 -0.0888,0.22 -0.16141,0.04 -0.16141,-0.4 z m 753.30372,-0.64 c 0,-0.616 0.0659,-0.868 0.14634,-0.56 0.0805,0.308 0.0805,0.812 0,1.12 -0.0805,0.308 -0.14634,0.056 -0.14634,-0.56 z m -809.87888,-2.56 c 0,-1.672 0.0539,-2.356 0.11985,-1.52 0.0659,0.836 0.0659,2.204 0,3.04 -0.0659,0.836 -0.11985,0.152 -0.11985,-1.52 z m 56.25516,1.28 c 0,-0.44 0.0726,-0.62 0.16141,-0.4 0.0888,0.22 0.0888,0.58 0,0.8 -0.0888,0.22 -0.16141,0.04 -0.16141,-0.4 z m 753.30372,-1.28 c 0,-0.616 0.0659,-0.868 0.14634,-0.56 0.0805,0.308 0.0805,0.812 0,1.12 -0.0805,0.308 -0.14634,0.056 -0.14634,-0.56 z m -753.61186,-0.8 c 0.007,-0.528 0.0782,-0.70525 0.15938,-0.39392 0.0811,0.31136 0.0758,0.74336 -0.0119,0.96 -0.0876,0.21667 -0.15403,-0.0381 -0.14751,-0.56608 z m 753.29186,-1.76 c 0,-0.616 0.0659,-0.868 0.14634,-0.56 0.0805,0.308 0.0805,0.812 0,1.12 -0.0805,0.308 -0.14634,0.056 -0.14634,-0.56 z m -753.62372,-0.32 c 0,-0.44 0.0726,-0.62 0.16141,-0.4 0.0888,0.22 0.0888,0.58 0,0.8 -0.0888,0.22 -0.16141,0.04 -0.16141,-0.4 z m -55.91606,-6.88 c -2.8e-4,-3.52 0.0465,-5.00365 0.1039,-3.29702 0.0574,1.70662 0.0576,4.58662 6.4e-4,6.4 -0.0572,1.81337 -0.10413,0.41702 -0.10441,-3.10298 z m 55.60792,4.8 c 0.007,-0.528 0.0782,-0.70525 0.15938,-0.39392 0.0811,0.31136 0.0758,0.74336 -0.0119,0.96 -0.0877,0.21667 -0.15403,-0.0381 -0.14751,-0.56608 z m 753.59999,0 c 0.006,-0.528 0.0782,-0.70525 0.15939,-0.39392 0.0811,0.31136 0.0758,0.74336 -0.0118,0.96 -0.0876,0.21667 -0.15402,-0.0381 -0.14752,-0.56608 z m -753.90813,-2.4 c 0,-0.616 0.0659,-0.868 0.14635,-0.56 0.0805,0.308 0.0805,0.812 0,1.12 -0.0805,0.308 -0.14635,0.056 -0.14635,-0.56 z m 753.58813,0.16 c 0.006,-0.528 0.0782,-0.70525 0.15939,-0.39392 0.0811,0.31136 0.0758,0.74336 -0.0118,0.96 -0.0877,0.21667 -0.15402,-0.0381 -0.14752,-0.56608 z m -0.32,-2.24 c 0.006,-0.528 0.0782,-0.70525 0.15939,-0.39392 0.0811,0.31136 0.0758,0.74336 -0.0118,0.96 -0.0876,0.21667 -0.15402,-0.0381 -0.14752,-0.56608 z m -753.59999,-0.32 c 0.007,-0.528 0.0782,-0.70525 0.15938,-0.39392 0.0811,0.31136 0.0758,0.74336 -0.0119,0.96 -0.0876,0.21667 -0.15403,-0.0381 -0.14751,-0.56608 z m 753.26815,-1.76 c 0,-0.44 0.0726,-0.62 0.16141,-0.4 0.0888,0.22 0.0888,0.58 0,0.8 -0.0888,0.22 -0.16141,0.04 -0.16141,-0.4 z M 213.2007,687.6 c 0.004,-0.704 0.0691,-0.95434 0.14562,-0.55626 0.0765,0.39805 0.0736,0.97405 -0.006,1.28 -0.0801,0.30592 -0.14272,-0.0198 -0.13917,-0.72374 z m 753.26167,-1.28 c 0.006,-0.528 0.0782,-0.70525 0.15939,-0.39392 0.0811,0.31136 0.0758,0.74336 -0.0118,0.96 -0.0876,0.21667 -0.15402,-0.0381 -0.14752,-0.56608 z m -753.58813,-1.44 c 0,-0.616 0.0659,-0.868 0.14635,-0.56 0.0805,0.308 0.0805,0.812 0,1.12 -0.0805,0.308 -0.14635,0.056 -0.14635,-0.56 z m 753.25629,-0.64 c 0,-0.44 0.0726,-0.62 0.16141,-0.4 0.0888,0.22 0.0888,0.58 0,0.8 -0.0888,0.22 -0.16141,0.04 -0.16141,-0.4 z m -807.94294,-3.2 c 0,-1.32 0.0565,-1.86 0.12552,-1.2 0.069,0.66 0.069,1.74 0,2.4 -0.069,0.66 -0.12552,0.12 -0.12552,-1.2 z m 54.37957,0.96 c 0,-0.792 0.0624,-1.116 0.13867,-0.72 0.0763,0.396 0.0763,1.044 0,1.44 -0.0763,0.396 -0.13867,0.072 -0.13867,-0.72 z m 753.24337,0.32 c 0,-0.44 0.0726,-0.62 0.16141,-0.4 0.0888,0.22 0.0888,0.58 0,0.8 -0.0888,0.22 -0.16141,0.04 -0.16141,-0.4 z m -0.32,-1.92 c 0,-0.44 0.0726,-0.62 0.16141,-0.4 0.0888,0.22 0.0888,0.58 0,0.8 -0.0888,0.22 -0.16141,0.04 -0.16141,-0.4 z m -753.24337,-1.6 c 0,-0.792 0.0624,-1.116 0.13867,-0.72 0.0763,0.396 0.0763,1.044 0,1.44 -0.0763,0.396 -0.13867,0.072 -0.13867,-0.72 z m 752.89809,-0.18666 c 0.0154,-0.3728 0.0912,-0.4486 0.19334,-0.19334 0.0925,0.23101 0.0811,0.50701 -0.0253,0.61334 -0.10633,0.10634 -0.18198,-0.0827 -0.16809,-0.42 z M 158.53446,671.92 c -2.8e-4,-3.52 0.0465,-5.00365 0.1039,-3.29702 0.0574,1.70662 0.0576,4.58662 6.4e-4,6.4 -0.0572,1.81337 -0.10413,0.41702 -0.10441,-3.10298 z m 806.31607,4.96 c 0,-0.44 0.0726,-0.62 0.16141,-0.4 0.0888,0.22 0.0888,0.58 0,0.8 -0.0888,0.22 -0.16141,0.04 -0.16141,-0.4 z m -752.91901,-1.44 c 0.003,-0.88 0.0645,-1.20202 0.13811,-0.71562 0.0736,0.48644 0.0716,1.20644 -0.004,1.6 -0.076,0.3936 -0.13613,-0.004 -0.13373,-0.88438 z m 752.57373,-0.34666 c 0.0154,-0.3728 0.0912,-0.4486 0.19334,-0.19334 0.0924,0.23101 0.0811,0.50701 -0.0253,0.61334 -0.10633,0.10634 -0.18198,-0.0827 -0.16809,-0.42 z m -0.32,-1.6 c 0.0154,-0.3728 0.0912,-0.4486 0.19334,-0.19334 0.0924,0.23101 0.0811,0.50701 -0.0253,0.61334 -0.10633,0.10634 -0.18198,-0.0827 -0.16809,-0.42 z M 211.61916,671.6 c 0.002,-1.056 0.0615,-1.44941 0.13275,-0.87427 0.0712,0.57517 0.0697,1.43917 -0.003,1.92 -0.073,0.48086 -0.13129,0.0102 -0.12949,-1.04573 z m 752.27137,0.16 c 0,-0.44 0.0726,-0.62 0.16141,-0.4 0.0888,0.22 0.0888,0.58 0,0.8 -0.0888,0.22 -0.16141,0.04 -0.16141,-0.4 z m -0.34528,-1.78666 c 0.0154,-0.3728 0.0912,-0.4486 0.19334,-0.19334 0.0924,0.23101 0.0811,0.50701 -0.0253,0.61334 -0.10633,0.10634 -0.18198,-0.0827 -0.16809,-0.42 z M 211.305,667.12 c 0.001,-1.232 0.0593,-1.6968 0.12854,-1.03286 0.0693,0.66393 0.0681,1.67193 -0.003,2.24 -0.0707,0.56806 -0.12737,0.025 -0.12595,-1.20714 z m 751.92025,1.25334 c 0.0154,-0.3728 0.0912,-0.4486 0.19334,-0.19334 0.0924,0.23101 0.0811,0.50701 -0.0253,0.61334 -0.10633,0.10634 -0.18198,-0.0827 -0.16809,-0.42 z m -0.32,-1.6 c 0.0154,-0.3728 0.0912,-0.4486 0.19334,-0.19334 0.0925,0.23101 0.0811,0.50701 -0.0253,0.61334 -0.10633,0.10634 -0.18198,-0.0827 -0.16809,-0.42 z M 158.83536,662.16 c 0,-1.672 0.0539,-2.356 0.11985,-1.52 0.0659,0.836 0.0659,2.204 0,3.04 -0.0659,0.836 -0.11985,0.152 -0.11985,-1.52 z m 52.15823,-0.48 c -9.6e-4,-1.584 0.0531,-2.27235 0.12024,-1.52966 0.0671,0.74268 0.0679,2.03868 0.002,2.88 -0.0661,0.84131 -0.12104,0.23366 -0.12202,-1.35034 z m 751.27166,2.21334 c 0.0154,-0.3728 0.0912,-0.4486 0.19334,-0.19334 0.0924,0.23101 0.0811,0.50701 -0.0253,0.61334 -0.10633,0.10634 -0.18198,-0.0827 -0.16809,-0.42 z m -0.32,-1.6 c 0.0154,-0.3728 0.0912,-0.4486 0.19334,-0.19334 0.0924,0.23101 0.0811,0.50701 -0.0253,0.61334 -0.10633,0.10634 -0.18198,-0.0827 -0.16809,-0.42 z m -0.64,-2.88 c 0.0154,-0.3728 0.0912,-0.4486 0.19334,-0.19334 0.0924,0.23101 0.0811,0.50701 -0.0253,0.61334 -0.10633,0.10634 -0.18198,-0.0827 -0.16809,-0.42 z M 159.145,656.56 c 10e-4,-1.232 0.0593,-1.6968 0.12854,-1.03286 0.0693,0.66393 0.0681,1.67193 -0.003,2.24 -0.0707,0.56806 -0.12737,0.025 -0.12595,-1.20714 z m 51.5438,-3.04 c 0,-2.728 0.0491,-3.844 0.10906,-2.48 0.06,1.364 0.06,3.596 0,4.96 -0.06,1.364 -0.10906,0.248 -0.10906,-2.48 z m 749.97645,3.01334 c 0.0154,-0.3728 0.0912,-0.4486 0.19334,-0.19334 0.0924,0.23101 0.0811,0.50701 -0.0253,0.61334 -0.10633,0.10634 -0.18198,-0.0827 -0.16809,-0.42 z M 159.45916,652.08 c 0.002,-1.056 0.0615,-1.44941 0.13275,-0.87427 0.0712,0.57517 0.0697,1.43917 -0.003,1.92 -0.073,0.48086 -0.13129,0.0102 -0.12949,-1.04573 z m 799.92609,-0.98666 c 0.0154,-0.3728 0.0912,-0.4486 0.19334,-0.19334 0.0924,0.23101 0.0811,0.50701 -0.0253,0.61334 -0.10633,0.10634 -0.18198,-0.0827 -0.16809,-0.42 z M 159.77152,648.24 c 0.003,-0.88 0.0645,-1.20202 0.13811,-0.71562 0.0736,0.48644 0.0716,1.20644 -0.004,1.6 -0.076,0.3936 -0.13613,-0.004 -0.13373,-0.88438 z m 50.60686,-7.84 c 0,-4.312 0.0453,-6.076 0.10066,-3.92 0.0554,2.156 0.0554,5.684 0,7.84 -0.0554,2.156 -0.10066,0.392 -0.10066,-3.92 z m -50.29122,4.48 c 0,-0.792 0.0624,-1.116 0.13867,-0.72 0.0763,0.396 0.0763,1.044 0,1.44 -0.0763,0.396 -0.13867,0.072 -0.13867,-0.72 z m 0.31354,-3.04 c 0.004,-0.704 0.0691,-0.95434 0.14562,-0.55626 0.0765,0.39805 0.0736,0.97405 -0.006,1.28 -0.0801,0.30592 -0.14272,-0.0198 -0.13917,-0.72374 z m 0.32,-2.88 c 0.004,-0.704 0.0691,-0.95434 0.14562,-0.55626 0.0765,0.39805 0.0736,0.97405 -0.006,1.28 -0.0801,0.30592 -0.14272,-0.0198 -0.13917,-0.72374 z m 0.31354,-2.72 c 0,-0.616 0.0659,-0.868 0.14635,-0.56 0.0805,0.308 0.0805,0.812 0,1.12 -0.0805,0.308 -0.14635,0.056 -0.14635,-0.56 z m 0.32,-2.56 c 0,-0.616 0.0659,-0.868 0.14635,-0.56 0.0805,0.308 0.0805,0.812 0,1.12 -0.0805,0.308 -0.14635,0.056 -0.14635,-0.56 z m 0.30814,-2.4 c 0.007,-0.528 0.0782,-0.70525 0.15938,-0.39392 0.0811,0.31136 0.0758,0.74336 -0.0119,0.96 -0.0876,0.21667 -0.15403,-0.0381 -0.14751,-0.56608 z m 49.02715,-4.16 c 3.2e-4,-2.816 0.0494,-3.92515 0.10879,-2.4648 0.0594,1.46035 0.0591,3.76435 -6.4e-4,5.12 -0.0598,1.35565 -0.10846,0.1608 -0.10805,-2.6552 z m -48.70715,1.92 c 0.007,-0.528 0.0782,-0.70525 0.15938,-0.39392 0.0811,0.31136 0.0758,0.74336 -0.0119,0.96 -0.0877,0.21667 -0.15403,-0.0381 -0.14751,-0.56608 z m 0.32,-2.24 c 0.007,-0.528 0.0782,-0.70525 0.15938,-0.39392 0.0811,0.31136 0.0758,0.74336 -0.0119,0.96 -0.0876,0.21667 -0.15403,-0.0381 -0.14751,-0.56608 z m 0.30814,-2.08 c 0,-0.44 0.0726,-0.62 0.16141,-0.4 0.0888,0.22 0.0888,0.58 0,0.8 -0.0888,0.22 -0.16141,0.04 -0.16141,-0.4 z m 0.32,-1.92 c 0,-0.44 0.0726,-0.62 0.16141,-0.4 0.0888,0.22 0.0888,0.58 0,0.8 -0.0888,0.22 -0.16141,0.04 -0.16141,-0.4 z m 0.32,-1.92 c 0,-0.44 0.0726,-0.62 0.16141,-0.4 0.0888,0.22 0.0888,0.58 0,0.8 -0.0888,0.22 -0.16141,0.04 -0.16141,-0.4 z m 47.74484,-2.24 c 0,-1.672 0.0539,-2.356 0.11985,-1.52 0.0659,0.836 0.0659,2.204 0,3.04 -0.0659,0.836 -0.11985,0.152 -0.11985,-1.52 z m -47.42484,0.32 c 0,-0.44 0.0726,-0.62 0.16141,-0.4 0.0888,0.22 0.0888,0.58 0,0.8 -0.0888,0.22 -0.16141,0.04 -0.16141,-0.4 z m 0.32,-1.92 c 0,-0.44 0.0726,-0.62 0.16141,-0.4 0.0888,0.22 0.0888,0.58 0,0.8 -0.0888,0.22 -0.16141,0.04 -0.16141,-0.4 z m 0.29474,-1.78666 c 0.0154,-0.3728 0.0912,-0.4486 0.19334,-0.19334 0.0924,0.23101 0.0811,0.50701 -0.0252,0.61334 -0.10634,0.10634 -0.18197,-0.0827 -0.16807,-0.42 z M 211.3097,612.72 c 0.001,-1.408 0.0574,-1.94419 0.12502,-1.19155 0.0676,0.75267 0.0667,1.90467 -0.002,2.56 -0.0688,0.65536 -0.12407,0.0395 -0.12291,-1.36845 z m -46.80444,0.93334 c 0.0154,-0.3728 0.0912,-0.4486 0.19334,-0.19334 0.0924,0.23101 0.0811,0.50701 -0.0252,0.61334 -0.10634,0.10634 -0.18197,-0.0827 -0.16807,-0.42 z m 0.32,-1.6 c 0.0154,-0.3728 0.0912,-0.4486 0.19334,-0.19334 0.0924,0.23101 0.0811,0.50701 -0.0252,0.61334 -0.10634,0.10634 -0.18197,-0.0827 -0.16807,-0.42 z m 0.32,-1.6 c 0.0154,-0.3728 0.0912,-0.4486 0.19334,-0.19334 0.0924,0.23101 0.0811,0.50701 -0.0252,0.61334 -0.10634,0.10634 -0.18197,-0.0827 -0.16807,-0.42 z M 211.62242,607.76 c 0,-1.144 0.0581,-1.612 0.12907,-1.04 0.071,0.572 0.071,1.508 0,2.08 -0.071,0.572 -0.12907,0.104 -0.12907,-1.04 z m -46.15716,1.09334 c 0.0154,-0.3728 0.0912,-0.4486 0.19334,-0.19334 0.0924,0.23101 0.0811,0.50701 -0.0252,0.61334 -0.10634,0.10634 -0.18197,-0.0827 -0.16807,-0.42 z m 0.32,-1.6 c 0.0154,-0.3728 0.0912,-0.4486 0.19334,-0.19334 0.0924,0.23101 0.0811,0.50701 -0.0252,0.61334 -0.10634,0.10634 -0.18197,-0.0827 -0.16807,-0.42 z m 0.32,-1.6 c 0.0154,-0.3728 0.0912,-0.4486 0.19334,-0.19334 0.0924,0.23101 0.0811,0.50701 -0.0252,0.61334 -0.10634,0.10634 -0.18197,-0.0827 -0.16807,-0.42 z M 211.93589,603.6 c 0,-0.968 0.06,-1.364 0.13331,-0.88 0.0733,0.484 0.0733,1.276 0,1.76 -0.0733,0.484 -0.13331,0.088 -0.13331,-0.88 z m -45.19063,-0.82666 c 0.0154,-0.3728 0.0912,-0.4486 0.19334,-0.19334 0.0924,0.23101 0.0811,0.50701 -0.0252,0.61334 -0.10634,0.10634 -0.18197,-0.0827 -0.16807,-0.42 z M 212.25152,599.92 c 0.003,-0.88 0.0645,-1.20202 0.13811,-0.71562 0.0735,0.48644 0.0716,1.20644 -0.004,1.6 -0.0759,0.3936 -0.13613,-0.004 -0.13373,-0.88438 z m -44.86626,-0.0266 c 0.0154,-0.3728 0.0912,-0.44861 0.19334,-0.19334 0.0924,0.231 0.0811,0.507 -0.0252,0.61334 -0.10634,0.10634 -0.18197,-0.0827 -0.16807,-0.42 z M 212.57152,596.4 c 0.003,-0.88 0.0645,-1.20202 0.13811,-0.71562 0.0735,0.48644 0.0716,1.20644 -0.004,1.6 -0.076,0.3936 -0.13613,-0.004 -0.13373,-0.88438 z m 0.30918,-3.2 c 0.004,-0.704 0.0691,-0.95434 0.14562,-0.55626 0.0765,0.39805 0.0736,0.97405 -0.006,1.28 -0.0801,0.30592 -0.14272,-0.0198 -0.13917,-0.72374 z m 0.32646,-3.04 c 0,-0.792 0.0624,-1.116 0.13867,-0.72 0.0763,0.396 0.0763,1.044 0,1.44 -0.0763,0.396 -0.13867,0.072 -0.13867,-0.72 z m 0.30708,-2.88 c 0,-0.616 0.0659,-0.868 0.14635,-0.56 0.0805,0.308 0.0805,0.812 0,1.12 -0.0805,0.308 -0.14635,0.056 -0.14635,-0.56 z m 0.32646,-2.72 c 0.004,-0.704 0.0691,-0.95434 0.14562,-0.55626 0.0765,0.39805 0.0736,0.97405 -0.006,1.28 -0.0801,0.30592 -0.14272,-0.0198 -0.13917,-0.72374 z m 0.31354,-2.72 c 0,-0.616 0.0659,-0.868 0.14635,-0.56 0.0805,0.308 0.0805,0.812 0,1.12 -0.0805,0.308 -0.14635,0.056 -0.14635,-0.56 z m 0.32,-2.56 c 0,-0.616 0.0659,-0.868 0.14635,-0.56 0.0805,0.308 0.0805,0.812 0,1.12 -0.0805,0.308 -0.14635,0.056 -0.14635,-0.56 z m 0.30814,-2.4 c 0.007,-0.528 0.0782,-0.70525 0.15938,-0.39392 0.0811,0.31136 0.0758,0.74336 -0.0119,0.96 -0.0876,0.21667 -0.15403,-0.0381 -0.14751,-0.56608 z m 0.32,-2.24 c 0.007,-0.528 0.0782,-0.70525 0.15938,-0.39392 0.0811,0.31136 0.0758,0.74336 -0.0119,0.96 -0.0876,0.21667 -0.15403,-0.0381 -0.14751,-0.56608 z m 0.32,-2.24 c 0.007,-0.528 0.0782,-0.70525 0.15938,-0.39392 0.0811,0.31136 0.0758,0.74336 -0.0119,0.96 -0.0877,0.21667 -0.15403,-0.0381 -0.14751,-0.56608 z m 0.32,-2.24 c 0.007,-0.528 0.0782,-0.70525 0.15938,-0.39392 0.0811,0.31136 0.0758,0.74336 -0.0119,0.96 -0.0876,0.21667 -0.15403,-0.0381 -0.14751,-0.56608 z m 0.32,-2.24 c 0.007,-0.528 0.0782,-0.70525 0.15938,-0.39392 0.0811,0.31136 0.0758,0.74336 -0.0119,0.96 -0.0876,0.21667 -0.15403,-0.0381 -0.14751,-0.56608 z m 0.30814,-2.08 c 0,-0.44 0.0726,-0.62 0.16141,-0.4 0.0888,0.22 0.0888,0.58 0,0.8 -0.0888,0.22 -0.16141,0.04 -0.16141,-0.4 z m 0.33186,-2.08 c 0.007,-0.528 0.0782,-0.70525 0.15938,-0.39392 0.0811,0.31136 0.0758,0.74336 -0.0119,0.96 -0.0877,0.21667 -0.15403,-0.0381 -0.14751,-0.56608 z m 0.30814,-2.08 c 0,-0.44 0.0726,-0.62 0.16141,-0.4 0.0888,0.22 0.0888,0.58 0,0.8 -0.0888,0.22 -0.16141,0.04 -0.16141,-0.4 z m 0.32,-1.92 c 0,-0.44 0.0726,-0.62 0.16141,-0.4 0.0888,0.22 0.0888,0.58 0,0.8 -0.0888,0.22 -0.16141,0.04 -0.16141,-0.4 z m 0.32,-1.92 c 0,-0.44 0.0726,-0.62 0.16141,-0.4 0.0888,0.22 0.0888,0.58 0,0.8 -0.0888,0.22 -0.16141,0.04 -0.16141,-0.4 z m 0.32,-1.92 c 0,-0.44 0.0726,-0.62 0.16141,-0.4 0.0888,0.22 0.0888,0.58 0,0.8 -0.0888,0.22 -0.16141,0.04 -0.16141,-0.4 z m 0.29474,-1.78666 c 0.0154,-0.3728 0.0912,-0.4486 0.19334,-0.19334 0.0924,0.23101 0.0811,0.50701 -0.0252,0.61334 -0.10634,0.10634 -0.18197,-0.0827 -0.16807,-0.42 z M 218.61052,552.4 c 0,-0.44 0.0726,-0.62 0.16141,-0.4 0.0888,0.22 0.0888,0.58 0,0.8 -0.0888,0.22 -0.16141,0.04 -0.16141,-0.4 z m 0.29474,-1.78666 c 0.0154,-0.3728 0.0912,-0.4486 0.19334,-0.19334 0.0924,0.23101 0.0811,0.50701 -0.0252,0.61334 -0.10634,0.10634 -0.18197,-0.0827 -0.16807,-0.42 z m 0.34526,-1.73334 c 0,-0.44 0.0726,-0.62 0.16141,-0.4 0.0888,0.22 0.0888,0.58 0,0.8 -0.0888,0.22 -0.16141,0.04 -0.16141,-0.4 z m 0.29474,-1.78666 c 0.0154,-0.3728 0.0912,-0.4486 0.19334,-0.19334 0.0924,0.23101 0.0811,0.50701 -0.0252,0.61334 -0.10634,0.10634 -0.18197,-0.0827 -0.16807,-0.42 z m 0.32,-1.6 c 0.0154,-0.3728 0.0912,-0.4486 0.19334,-0.19334 0.0924,0.23101 0.0811,0.50701 -0.0252,0.61334 -0.10634,0.10634 -0.18197,-0.0827 -0.16807,-0.42 z m 0.34526,-1.73334 c 0,-0.44 0.0726,-0.62 0.16141,-0.4 0.0888,0.22 0.0888,0.58 0,0.8 -0.0888,0.22 -0.16141,0.04 -0.16141,-0.4 z m 0.29474,-1.78666 c 0.0154,-0.3728 0.0912,-0.4486 0.19334,-0.19334 0.0924,0.23101 0.0811,0.50701 -0.0252,0.61334 -0.10634,0.10634 -0.18197,-0.0827 -0.16807,-0.42 z m 0.32,-1.6 c 0.0154,-0.3728 0.0912,-0.4486 0.19334,-0.19334 0.0924,0.23101 0.0811,0.50701 -0.0252,0.61334 -0.10634,0.10634 -0.18197,-0.0827 -0.16807,-0.42 z m 0.32,-1.6 c 0.0154,-0.3728 0.0912,-0.4486 0.19334,-0.19334 0.0924,0.23101 0.0811,0.50701 -0.0252,0.61334 -0.10634,0.10634 -0.18197,-0.0827 -0.16807,-0.42 z m 0.32,-1.6 c 0.0154,-0.3728 0.0912,-0.4486 0.19334,-0.19334 0.0924,0.23101 0.0811,0.50701 -0.0252,0.61334 -0.10634,0.10634 -0.18197,-0.0827 -0.16807,-0.42 z m 0.64,-2.88 c 0.0154,-0.3728 0.0912,-0.4486 0.19334,-0.19334 0.0924,0.23101 0.0811,0.50701 -0.0252,0.61334 -0.10634,0.10634 -0.18197,-0.0827 -0.16807,-0.42 z m 0.32,-1.6 c 0.0154,-0.3728 0.0912,-0.4486 0.19334,-0.19334 0.0924,0.23101 0.0811,0.50701 -0.0252,0.61334 -0.10634,0.10634 -0.18197,-0.0827 -0.16807,-0.42 z m 0.32,-1.6 c 0.0154,-0.3728 0.0912,-0.4486 0.19334,-0.19334 0.0924,0.23101 0.0811,0.50701 -0.0252,0.61334 -0.10634,0.10634 -0.18197,-0.0827 -0.16807,-0.42 z m 0.64,-2.88 c 0.0154,-0.3728 0.0912,-0.4486 0.19334,-0.19334 0.0924,0.23101 0.0811,0.50701 -0.0252,0.61334 -0.10634,0.10634 -0.18197,-0.0827 -0.16807,-0.42 z m 0.64,-2.88 c 0.0154,-0.3728 0.0912,-0.4486 0.19334,-0.19334 0.0924,0.23101 0.0811,0.50701 -0.0252,0.61334 -0.10634,0.10634 -0.18197,-0.0827 -0.16807,-0.42 z m 0.64,-2.88 c 0.0154,-0.3728 0.0912,-0.4486 0.19334,-0.19334 0.0924,0.23101 0.0811,0.50701 -0.0252,0.61334 -0.10634,0.10634 -0.18197,-0.0827 -0.16807,-0.42 z m 1.28,-5.44 c 0.0154,-0.3728 0.0912,-0.4486 0.19334,-0.19334 0.0924,0.23101 0.0811,0.50701 -0.0252,0.61334 -0.10634,0.10634 -0.18197,-0.0827 -0.16807,-0.42 z"
         id="path32" />
      <path
         style="fill:#c40000;stroke-width:0.32"
         d="M 530.72,1083.2506 C 385.07235,1076.4807 260.522,996.05584 203.68967,872.08 132.76123,717.35446 147.10822,558.12861 241.36763,453.92234 c 4.28515,-4.73735 4.19683,-4.78781 2.20182,1.25756 -83.84945,254.08426 -2.29124,440.32528 216.8182,495.11194 21.40579,5.35235 24.48614,5.78192 41.21235,5.74752 124.38566,-0.256 217.41802,-48.49616 269.91514,-139.95936 14.39654,-25.08243 26.93049,-58.22774 30.95267,-81.85251 0.47952,-2.81645 0.65395,-3.30951 1.20637,-3.40992 0.3552,-0.0646 2.37382,-0.27149 4.48582,-0.45981 42.26259,-3.76864 100.42867,-39.80157 146.40522,-90.69568 1.71622,-1.89978 1.41827,-2.45987 3.79744,7.13792 39.13132,157.85942 -11.9809,283.27034 -148.86234,365.2544 -83.75091,50.1619 -183.4625,75.6268 -278.78032,71.1962 z"
         id="path26" />
      <path
         style="fill:#003265;stroke-width:0.32"
         d="M 514.29517,940.07043 C 381.17984,907.79568 298.46885,830.34134 269.4647,710.8 250.44509,632.41018 255.62544,534.80848 283.19067,452.19242 325.4865,325.42707 405.19603,236.06682 515.2,192.09288 c 41.05648,-16.41228 86.17344,-25.9326 122.88,-25.92944 162.01693,0.014 293.44966,68.88864 360.33725,188.82747 7.66595,13.74618 19.18275,39.33274 19.18275,42.61789 0,0.1968 -5.508,-5.11011 -12.24,-11.79312 C 849.03245,230.62581 691.15146,198.58321 549.24835,293.24593 c -38.28505,25.53973 -82.3159,68.34559 -95.2439,92.59407 -69.82442,130.96669 -60.30675,255.28656 26.78912,349.92 8.57885,9.32128 26.66726,25.9264 30.16605,27.69238 0.0438,0.0221 -0.77386,2.18836 -1.81696,4.81389 -15.77271,39.70019 -11.55306,103.74029 11.01667,167.19619 1.14435,3.21748 2.08067,5.96868 2.08067,6.11376 0,0.40445 -0.30288,0.34704 -7.94483,-1.50579 z"
         id="path24" />
    </g>
  </g>
</svg>
